<mxfile host="app.diagrams.net" agent="Mozilla/5.0 (Macintosh; Intel Mac OS X 10_15_7) AppleWebKit/537.36 (KHTML, like Gecko) Chrome/132.0.0.0 Safari/537.36" version="26.0.16">
  <diagram name="第 1 页" id="94seTLkmNgd-jRqaN3t1">
    <mxGraphModel dx="2009" dy="1269" grid="0" gridSize="10" guides="1" tooltips="1" connect="1" arrows="1" fold="1" page="0" pageScale="1" pageWidth="827" pageHeight="1169" math="0" shadow="0">
      <root>
        <mxCell id="0" />
        <mxCell id="1" parent="0" />
        <mxCell id="jRx22ifhWcReBO-ltdZH-1" value="" style="html=1;points=[];perimeter=orthogonalPerimeter;rounded=0;shadow=0;comic=0;labelBackgroundColor=none;strokeWidth=1;fontFamily=Verdana;fontSize=12;align=center;" vertex="1" parent="1">
          <mxGeometry x="1285" y="578.5" width="10" height="33" as="geometry" />
        </mxCell>
        <mxCell id="jRx22ifhWcReBO-ltdZH-2" value="IterationControlller" style="shape=umlLifeline;perimeter=lifelinePerimeter;whiteSpace=wrap;html=1;container=1;collapsible=0;recursiveResize=0;outlineConnect=0;rounded=1;shadow=0;comic=0;labelBackgroundColor=none;strokeWidth=1;fontFamily=Verdana;fontSize=12;align=center;" vertex="1" parent="1">
          <mxGeometry x="260" y="80" width="100" height="958" as="geometry" />
        </mxCell>
        <mxCell id="jRx22ifhWcReBO-ltdZH-3" value="" style="html=1;points=[];perimeter=orthogonalPerimeter;rounded=0;shadow=0;comic=0;labelBackgroundColor=none;strokeWidth=1;fontFamily=Verdana;fontSize=12;align=center;" vertex="1" parent="jRx22ifhWcReBO-ltdZH-2">
          <mxGeometry x="45" y="100" width="10" height="802" as="geometry" />
        </mxCell>
        <mxCell id="jRx22ifhWcReBO-ltdZH-4" value="返回token" style="html=1;verticalAlign=bottom;endArrow=open;dashed=1;endSize=6;labelBackgroundColor=none;fontFamily=Verdana;fontSize=12;edgeStyle=elbowEdgeStyle;elbow=vertical;jumpSize=6;" edge="1" parent="jRx22ifhWcReBO-ltdZH-2">
          <mxGeometry x="-0.0024" relative="1" as="geometry">
            <mxPoint x="-91" y="225" as="targetPoint" />
            <Array as="points">
              <mxPoint x="-11" y="225" />
              <mxPoint x="19" y="225" />
            </Array>
            <mxPoint x="48" y="225" as="sourcePoint" />
            <mxPoint as="offset" />
          </mxGeometry>
        </mxCell>
        <mxCell id="jRx22ifhWcReBO-ltdZH-5" value="返回数据" style="html=1;verticalAlign=bottom;endArrow=open;dashed=1;endSize=6;labelBackgroundColor=none;fontFamily=Verdana;fontSize=12;edgeStyle=elbowEdgeStyle;elbow=vertical;jumpSize=6;" edge="1" parent="jRx22ifhWcReBO-ltdZH-2">
          <mxGeometry x="-0.0024" relative="1" as="geometry">
            <mxPoint x="-94" y="898" as="targetPoint" />
            <Array as="points">
              <mxPoint x="-14" y="898" />
              <mxPoint x="16" y="898" />
            </Array>
            <mxPoint x="45" y="898" as="sourcePoint" />
            <mxPoint as="offset" />
          </mxGeometry>
        </mxCell>
        <mxCell id="jRx22ifhWcReBO-ltdZH-6" value="IterationService" style="shape=umlLifeline;perimeter=lifelinePerimeter;whiteSpace=wrap;html=1;container=1;collapsible=0;recursiveResize=0;outlineConnect=0;rounded=1;shadow=0;comic=0;labelBackgroundColor=none;strokeWidth=1;fontFamily=Verdana;fontSize=12;align=center;" vertex="1" parent="1">
          <mxGeometry x="400" y="80" width="100" height="958" as="geometry" />
        </mxCell>
        <mxCell id="jRx22ifhWcReBO-ltdZH-7" value="" style="html=1;points=[];perimeter=orthogonalPerimeter;rounded=0;shadow=0;comic=0;labelBackgroundColor=none;strokeWidth=1;fontFamily=Verdana;fontSize=12;align=center;" vertex="1" parent="jRx22ifhWcReBO-ltdZH-6">
          <mxGeometry x="45" y="120" width="10" height="84" as="geometry" />
        </mxCell>
        <mxCell id="jRx22ifhWcReBO-ltdZH-8" value="返回token" style="html=1;verticalAlign=bottom;endArrow=open;dashed=1;endSize=6;labelBackgroundColor=none;fontFamily=Verdana;fontSize=12;edgeStyle=elbowEdgeStyle;elbow=vertical;jumpSize=6;" edge="1" parent="jRx22ifhWcReBO-ltdZH-6">
          <mxGeometry x="-0.2518" y="-6" relative="1" as="geometry">
            <mxPoint x="-100" y="203.67000000000002" as="targetPoint" />
            <Array as="points">
              <mxPoint x="-20" y="203.67000000000002" />
              <mxPoint x="10" y="203.67000000000002" />
            </Array>
            <mxPoint x="39" y="203.67000000000002" as="sourcePoint" />
            <mxPoint as="offset" />
          </mxGeometry>
        </mxCell>
        <mxCell id="jRx22ifhWcReBO-ltdZH-9" value="TokenParseService" style="shape=umlLifeline;perimeter=lifelinePerimeter;whiteSpace=wrap;html=1;container=1;collapsible=0;recursiveResize=0;outlineConnect=0;rounded=1;shadow=0;comic=0;labelBackgroundColor=none;strokeWidth=1;fontFamily=Verdana;fontSize=12;align=center;" vertex="1" parent="1">
          <mxGeometry x="540" y="80" width="100" height="958" as="geometry" />
        </mxCell>
        <mxCell id="jRx22ifhWcReBO-ltdZH-10" value="" style="html=1;points=[];perimeter=orthogonalPerimeter;rounded=0;shadow=0;comic=0;labelBackgroundColor=none;strokeWidth=1;fontFamily=Verdana;fontSize=12;align=center;" vertex="1" parent="jRx22ifhWcReBO-ltdZH-9">
          <mxGeometry x="45" y="301" width="10" height="34" as="geometry" />
        </mxCell>
        <mxCell id="jRx22ifhWcReBO-ltdZH-11" value="" style="shape=umlLifeline;perimeter=lifelinePerimeter;whiteSpace=wrap;html=1;container=1;collapsible=0;recursiveResize=0;outlineConnect=0;rounded=1;shadow=0;comic=0;labelBackgroundColor=none;strokeWidth=1;fontFamily=Verdana;fontSize=12;align=center;" vertex="1" parent="1">
          <mxGeometry x="680" y="80" width="100" height="958" as="geometry" />
        </mxCell>
        <mxCell id="jRx22ifhWcReBO-ltdZH-12" value="查询缓存" style="html=1;verticalAlign=bottom;endArrow=block;entryX=0;entryY=0;labelBackgroundColor=none;fontFamily=Verdana;fontSize=12;edgeStyle=elbowEdgeStyle;elbow=horizontal;" edge="1" parent="jRx22ifhWcReBO-ltdZH-11">
          <mxGeometry relative="1" as="geometry">
            <mxPoint x="-85" y="325" as="sourcePoint" />
            <mxPoint x="45" y="325" as="targetPoint" />
          </mxGeometry>
        </mxCell>
        <mxCell id="jRx22ifhWcReBO-ltdZH-13" value="" style="html=1;points=[];perimeter=orthogonalPerimeter;rounded=0;shadow=0;comic=0;labelBackgroundColor=none;strokeWidth=1;fontFamily=Verdana;fontSize=12;align=center;" vertex="1" parent="jRx22ifhWcReBO-ltdZH-11">
          <mxGeometry x="45" y="318" width="10" height="34" as="geometry" />
        </mxCell>
        <mxCell id="jRx22ifhWcReBO-ltdZH-14" value="协作平台服务" style="shape=umlLifeline;perimeter=lifelinePerimeter;whiteSpace=wrap;html=1;container=1;collapsible=0;recursiveResize=0;outlineConnect=0;rounded=1;shadow=0;comic=0;labelBackgroundColor=none;strokeWidth=1;fontFamily=Verdana;fontSize=12;align=center;" vertex="1" parent="1">
          <mxGeometry x="820" y="80" width="100" height="958" as="geometry" />
        </mxCell>
        <mxCell id="jRx22ifhWcReBO-ltdZH-15" value="" style="html=1;points=[];perimeter=orthogonalPerimeter;rounded=0;shadow=0;comic=0;labelBackgroundColor=none;strokeWidth=1;fontFamily=Verdana;fontSize=12;align=center;" vertex="1" parent="jRx22ifhWcReBO-ltdZH-14">
          <mxGeometry x="45" y="335" width="10" height="551" as="geometry" />
        </mxCell>
        <mxCell id="jRx22ifhWcReBO-ltdZH-16" value="执行功能服务" style="html=1;verticalAlign=bottom;endArrow=block;entryX=0;entryY=0;labelBackgroundColor=none;fontFamily=Verdana;fontSize=12;edgeStyle=elbowEdgeStyle;elbow=horizontal;" edge="1" parent="jRx22ifhWcReBO-ltdZH-14">
          <mxGeometry relative="1" as="geometry">
            <mxPoint x="-85" y="345" as="sourcePoint" />
            <mxPoint x="45" y="345" as="targetPoint" />
          </mxGeometry>
        </mxCell>
        <mxCell id="jRx22ifhWcReBO-ltdZH-17" value="请求python_stat服务" style="html=1;verticalAlign=bottom;endArrow=block;entryX=0;entryY=0;labelBackgroundColor=none;fontFamily=Verdana;fontSize=12;edgeStyle=elbowEdgeStyle;elbow=horizontal;" edge="1" parent="jRx22ifhWcReBO-ltdZH-14">
          <mxGeometry relative="1" as="geometry">
            <mxPoint x="60" y="442" as="sourcePoint" />
            <mxPoint x="190" y="442" as="targetPoint" />
            <mxPoint as="offset" />
            <Array as="points">
              <mxPoint x="133" y="465" />
            </Array>
          </mxGeometry>
        </mxCell>
        <mxCell id="jRx22ifhWcReBO-ltdZH-18" value="返回信息&lt;span style=&quot;color: rgba(0, 0, 0, 0); font-family: monospace; font-size: 0px; text-align: start;&quot;&gt;%3CmxGraphModel%3E%3Croot%3E%3CmxCell%20id%3D%220%22%2F%3E%3CmxCell%20id%3D%221%22%20parent%3D%220%22%2F%3E%3CmxCell%20id%3D%222%22%20value%3D%22%E8%BD%AC%E5%8F%91%E8%AF%B7%E6%B1%82%22%20style%3D%22html%3D1%3BverticalAlign%3Dbottom%3BendArrow%3Dopen%3Bdashed%3D1%3BendSize%3D6%3BlabelBackgroundColor%3Dnone%3BfontFamily%3DVerdana%3BfontSize%3D12%3BedgeStyle%3DelbowEdgeStyle%3Belbow%3Dvertical%3BjumpSize%3D6%3B%22%20edge%3D%221%22%20parent%3D%221%22%3E%3CmxGeometry%20x%3D%22-0.0024%22%20relative%3D%221%22%20as%3D%22geometry%22%3E%3CmxPoint%20x%3D%22169%22%20y%3D%22305%22%20as%3D%22targetPoint%22%2F%3E%3CArray%20as%3D%22points%22%3E%3CmxPoint%20x%3D%22249%22%20y%3D%22305%22%2F%3E%3CmxPoint%20x%3D%22279%22%20y%3D%22305%22%2F%3E%3C%2FArray%3E%3CmxPoint%20x%3D%22308%22%20y%3D%22305%22%20as%3D%22sourcePoint%22%2F%3E%3CmxPoint%20as%3D%22offset%22%2F%3E%3C%2FmxGeometry%3E%3C%2FmxCell%3E%3C%2Froot%3E%3C%2FmxGraphModel%3E&lt;/span&gt;" style="html=1;verticalAlign=bottom;endArrow=open;dashed=1;endSize=6;labelBackgroundColor=none;fontFamily=Verdana;fontSize=12;edgeStyle=elbowEdgeStyle;elbow=horizontal;jumpSize=6;" edge="1" parent="jRx22ifhWcReBO-ltdZH-14">
          <mxGeometry x="0.0072" relative="1" as="geometry">
            <mxPoint x="49" y="412" as="targetPoint" />
            <Array as="points">
              <mxPoint x="129" y="426" />
              <mxPoint x="159" y="426" />
            </Array>
            <mxPoint x="188" y="412" as="sourcePoint" />
            <mxPoint as="offset" />
          </mxGeometry>
        </mxCell>
        <mxCell id="jRx22ifhWcReBO-ltdZH-19" value="返回信息&lt;span style=&quot;color: rgba(0, 0, 0, 0); font-family: monospace; font-size: 0px; text-align: start;&quot;&gt;%3CmxGraphModel%3E%3Croot%3E%3CmxCell%20id%3D%220%22%2F%3E%3CmxCell%20id%3D%221%22%20parent%3D%220%22%2F%3E%3CmxCell%20id%3D%222%22%20value%3D%22%E8%BD%AC%E5%8F%91%E8%AF%B7%E6%B1%82%22%20style%3D%22html%3D1%3BverticalAlign%3Dbottom%3BendArrow%3Dopen%3Bdashed%3D1%3BendSize%3D6%3BlabelBackgroundColor%3Dnone%3BfontFamily%3DVerdana%3BfontSize%3D12%3BedgeStyle%3DelbowEdgeStyle%3Belbow%3Dvertical%3BjumpSize%3D6%3B%22%20edge%3D%221%22%20parent%3D%221%22%3E%3CmxGeometry%20x%3D%22-0.0024%22%20relative%3D%221%22%20as%3D%22geometry%22%3E%3CmxPoint%20x%3D%22169%22%20y%3D%22305%22%20as%3D%22targetPoint%22%2F%3E%3CArray%20as%3D%22points%22%3E%3CmxPoint%20x%3D%22249%22%20y%3D%22305%22%2F%3E%3CmxPoint%20x%3D%22279%22%20y%3D%22305%22%2F%3E%3C%2FArray%3E%3CmxPoint%20x%3D%22308%22%20y%3D%22305%22%20as%3D%22sourcePoint%22%2F%3E%3CmxPoint%20as%3D%22offset%22%2F%3E%3C%2FmxGeometry%3E%3C%2FmxCell%3E%3C%2Froot%3E%3C%2FmxGraphModel%3E&lt;/span&gt;" style="html=1;verticalAlign=bottom;endArrow=open;dashed=1;endSize=6;labelBackgroundColor=none;fontFamily=Verdana;fontSize=12;edgeStyle=elbowEdgeStyle;elbow=horizontal;jumpSize=6;" edge="1" parent="jRx22ifhWcReBO-ltdZH-14">
          <mxGeometry x="0.0072" relative="1" as="geometry">
            <mxPoint x="56" y="472" as="targetPoint" />
            <Array as="points">
              <mxPoint x="136" y="509" />
              <mxPoint x="166" y="509" />
            </Array>
            <mxPoint x="195" y="472" as="sourcePoint" />
            <mxPoint as="offset" />
          </mxGeometry>
        </mxCell>
        <mxCell id="jRx22ifhWcReBO-ltdZH-20" value="异步请求" style="html=1;verticalAlign=bottom;labelBackgroundColor=none;endArrow=open;endFill=0;rounded=0;" edge="1" parent="jRx22ifhWcReBO-ltdZH-14">
          <mxGeometry width="160" relative="1" as="geometry">
            <mxPoint x="63" y="502" as="sourcePoint" />
            <mxPoint x="188" y="502" as="targetPoint" />
            <mxPoint as="offset" />
          </mxGeometry>
        </mxCell>
        <mxCell id="jRx22ifhWcReBO-ltdZH-21" value="返回信息&lt;span style=&quot;color: rgba(0, 0, 0, 0); font-family: monospace; font-size: 0px; text-align: start;&quot;&gt;%3CmxGraphModel%3E%3Croot%3E%3CmxCell%20id%3D%220%22%2F%3E%3CmxCell%20id%3D%221%22%20parent%3D%220%22%2F%3E%3CmxCell%20id%3D%222%22%20value%3D%22%E8%BD%AC%E5%8F%91%E8%AF%B7%E6%B1%82%22%20style%3D%22html%3D1%3BverticalAlign%3Dbottom%3BendArrow%3Dopen%3Bdashed%3D1%3BendSize%3D6%3BlabelBackgroundColor%3Dnone%3BfontFamily%3DVerdana%3BfontSize%3D12%3BedgeStyle%3DelbowEdgeStyle%3Belbow%3Dvertical%3BjumpSize%3D6%3B%22%20edge%3D%221%22%20parent%3D%221%22%3E%3CmxGeometry%20x%3D%22-0.0024%22%20relative%3D%221%22%20as%3D%22geometry%22%3E%3CmxPoint%20x%3D%22169%22%20y%3D%22305%22%20as%3D%22targetPoint%22%2F%3E%3CArray%20as%3D%22points%22%3E%3CmxPoint%20x%3D%22249%22%20y%3D%22305%22%2F%3E%3CmxPoint%20x%3D%22279%22%20y%3D%22305%22%2F%3E%3C%2FArray%3E%3CmxPoint%20x%3D%22308%22%20y%3D%22305%22%20as%3D%22sourcePoint%22%2F%3E%3CmxPoint%20as%3D%22offset%22%2F%3E%3C%2FmxGeometry%3E%3C%2FmxCell%3E%3C%2Froot%3E%3C%2FmxGraphModel%3E&lt;/span&gt;" style="html=1;verticalAlign=bottom;endArrow=open;dashed=1;endSize=6;labelBackgroundColor=none;fontFamily=Verdana;fontSize=12;edgeStyle=elbowEdgeStyle;elbow=horizontal;jumpSize=6;" edge="1" parent="jRx22ifhWcReBO-ltdZH-14">
          <mxGeometry x="0.0072" relative="1" as="geometry">
            <mxPoint x="49" y="532" as="targetPoint" />
            <Array as="points">
              <mxPoint x="129" y="582" />
              <mxPoint x="159" y="582" />
            </Array>
            <mxPoint x="188" y="532" as="sourcePoint" />
            <mxPoint as="offset" />
          </mxGeometry>
        </mxCell>
        <mxCell id="jRx22ifhWcReBO-ltdZH-22" value="Other Service" style="shape=umlLifeline;perimeter=lifelinePerimeter;whiteSpace=wrap;html=1;container=1;collapsible=0;recursiveResize=0;outlineConnect=0;rounded=1;shadow=0;comic=0;labelBackgroundColor=none;strokeWidth=1;fontFamily=Verdana;fontSize=12;align=center;" vertex="1" parent="1">
          <mxGeometry x="960" y="80" width="100" height="958" as="geometry" />
        </mxCell>
        <mxCell id="jRx22ifhWcReBO-ltdZH-23" value="请求highchart服务" style="html=1;verticalAlign=bottom;endArrow=block;entryX=0;entryY=0;labelBackgroundColor=none;fontFamily=Verdana;fontSize=12;edgeStyle=elbowEdgeStyle;elbow=horizontal;" edge="1" parent="jRx22ifhWcReBO-ltdZH-22">
          <mxGeometry relative="1" as="geometry">
            <mxPoint x="-85" y="382" as="sourcePoint" />
            <mxPoint x="45" y="382" as="targetPoint" />
            <mxPoint as="offset" />
          </mxGeometry>
        </mxCell>
        <mxCell id="jRx22ifhWcReBO-ltdZH-24" value="登录" style="html=1;verticalAlign=bottom;endArrow=block;entryX=0;entryY=0;labelBackgroundColor=none;fontFamily=Verdana;fontSize=12;edgeStyle=elbowEdgeStyle;elbow=vertical;" edge="1" parent="1" source="jRx22ifhWcReBO-ltdZH-27" target="jRx22ifhWcReBO-ltdZH-3">
          <mxGeometry relative="1" as="geometry">
            <mxPoint x="150" y="180" as="sourcePoint" />
          </mxGeometry>
        </mxCell>
        <mxCell id="jRx22ifhWcReBO-ltdZH-25" value="转发登录请求" style="html=1;verticalAlign=bottom;endArrow=block;entryX=0;entryY=0;labelBackgroundColor=none;fontFamily=Verdana;fontSize=12;edgeStyle=elbowEdgeStyle;elbow=vertical;" edge="1" parent="1" source="jRx22ifhWcReBO-ltdZH-3" target="jRx22ifhWcReBO-ltdZH-7">
          <mxGeometry relative="1" as="geometry">
            <mxPoint x="370" y="200" as="sourcePoint" />
          </mxGeometry>
        </mxCell>
        <mxCell id="jRx22ifhWcReBO-ltdZH-26" value="ES Service" style="shape=umlLifeline;perimeter=lifelinePerimeter;whiteSpace=wrap;html=1;container=1;collapsible=0;recursiveResize=0;outlineConnect=0;rounded=1;shadow=0;comic=0;labelBackgroundColor=none;strokeWidth=1;fontFamily=Verdana;fontSize=12;align=center;" vertex="1" parent="1">
          <mxGeometry x="1110" y="80" width="100" height="958" as="geometry" />
        </mxCell>
        <mxCell id="jRx22ifhWcReBO-ltdZH-27" value="" style="shape=umlLifeline;perimeter=lifelinePerimeter;whiteSpace=wrap;html=1;container=1;dropTarget=0;collapsible=0;recursiveResize=0;outlineConnect=0;portConstraint=eastwest;newEdgeStyle={&quot;curved&quot;:0,&quot;rounded&quot;:0};participant=umlActor;" vertex="1" parent="1">
          <mxGeometry x="147" y="80" width="46" height="958" as="geometry" />
        </mxCell>
        <mxCell id="jRx22ifhWcReBO-ltdZH-28" value="使用协作功能（带token）" style="html=1;verticalAlign=bottom;endArrow=block;entryX=0;entryY=0;labelBackgroundColor=none;fontFamily=Verdana;fontSize=12;edgeStyle=elbowEdgeStyle;elbow=vertical;" edge="1" parent="1">
          <mxGeometry relative="1" as="geometry">
            <mxPoint x="171" y="369.99999999999994" as="sourcePoint" />
            <mxPoint x="306" y="369.99999999999994" as="targetPoint" />
          </mxGeometry>
        </mxCell>
        <mxCell id="jRx22ifhWcReBO-ltdZH-29" value="进行权限验证" style="html=1;verticalAlign=bottom;endArrow=block;labelBackgroundColor=none;fontFamily=Verdana;fontSize=12;edgeStyle=elbowEdgeStyle;elbow=vertical;" edge="1" parent="1" target="jRx22ifhWcReBO-ltdZH-9">
          <mxGeometry relative="1" as="geometry">
            <mxPoint x="317" y="381.33000000000004" as="sourcePoint" />
            <mxPoint x="447" y="381.33000000000004" as="targetPoint" />
          </mxGeometry>
        </mxCell>
        <mxCell id="jRx22ifhWcReBO-ltdZH-30" value="DateBase" style="shape=umlLifeline;perimeter=lifelinePerimeter;whiteSpace=wrap;html=1;container=1;collapsible=0;recursiveResize=0;outlineConnect=0;rounded=1;shadow=0;comic=0;labelBackgroundColor=none;strokeWidth=1;fontFamily=Verdana;fontSize=12;align=center;" vertex="1" parent="1">
          <mxGeometry x="1240" y="80" width="100" height="958" as="geometry" />
        </mxCell>
        <mxCell id="jRx22ifhWcReBO-ltdZH-31" value="" style="html=1;points=[];perimeter=orthogonalPerimeter;rounded=0;shadow=0;comic=0;labelBackgroundColor=none;strokeWidth=1;fontFamily=Verdana;fontSize=12;align=center;" vertex="1" parent="jRx22ifhWcReBO-ltdZH-30">
          <mxGeometry x="45" y="718" width="10" height="72" as="geometry" />
        </mxCell>
        <mxCell id="jRx22ifhWcReBO-ltdZH-32" value="" style="html=1;points=[];perimeter=orthogonalPerimeter;rounded=0;shadow=0;comic=0;labelBackgroundColor=none;strokeWidth=1;fontFamily=Verdana;fontSize=12;align=center;" vertex="1" parent="jRx22ifhWcReBO-ltdZH-30">
          <mxGeometry x="45" y="160" width="10" height="33" as="geometry" />
        </mxCell>
        <mxCell id="jRx22ifhWcReBO-ltdZH-33" value="Opt" style="shape=umlFrame;whiteSpace=wrap;html=1;pointerEvents=0;" vertex="1" parent="1">
          <mxGeometry x="803" y="442" width="530" height="196" as="geometry" />
        </mxCell>
        <mxCell id="jRx22ifhWcReBO-ltdZH-34" value="【符合ES查询条件】ES查询" style="html=1;verticalAlign=bottom;endArrow=block;labelBackgroundColor=none;fontFamily=Verdana;fontSize=12;edgeStyle=elbowEdgeStyle;elbow=vertical;" edge="1" parent="1">
          <mxGeometry relative="1" as="geometry">
            <mxPoint x="879" y="691" as="sourcePoint" />
            <mxPoint x="1152" y="691.6700000000001" as="targetPoint" />
          </mxGeometry>
        </mxCell>
        <mxCell id="jRx22ifhWcReBO-ltdZH-35" value="【不符合ES查询条件】查询数据库" style="html=1;verticalAlign=bottom;endArrow=block;labelBackgroundColor=none;fontFamily=Verdana;fontSize=12;edgeStyle=elbowEdgeStyle;elbow=vertical;" edge="1" parent="1" target="jRx22ifhWcReBO-ltdZH-30">
          <mxGeometry relative="1" as="geometry">
            <mxPoint x="877" y="796" as="sourcePoint" />
            <mxPoint x="1216" y="791" as="targetPoint" />
          </mxGeometry>
        </mxCell>
        <mxCell id="jRx22ifhWcReBO-ltdZH-36" value="返回信息" style="html=1;verticalAlign=bottom;endArrow=open;dashed=1;endSize=6;labelBackgroundColor=none;fontFamily=Verdana;fontSize=12;edgeStyle=elbowEdgeStyle;elbow=vertical;jumpSize=6;" edge="1" parent="1" source="jRx22ifhWcReBO-ltdZH-26" target="jRx22ifhWcReBO-ltdZH-14">
          <mxGeometry x="-0.0024" relative="1" as="geometry">
            <mxPoint x="902" y="732" as="targetPoint" />
            <Array as="points">
              <mxPoint x="982" y="732" />
              <mxPoint x="1012" y="732" />
            </Array>
            <mxPoint x="1041" y="732" as="sourcePoint" />
            <mxPoint as="offset" />
          </mxGeometry>
        </mxCell>
        <mxCell id="jRx22ifhWcReBO-ltdZH-37" value="返回信息" style="html=1;verticalAlign=bottom;endArrow=open;dashed=1;endSize=6;labelBackgroundColor=none;fontFamily=Verdana;fontSize=12;edgeStyle=elbowEdgeStyle;elbow=vertical;jumpSize=6;" edge="1" parent="1" source="jRx22ifhWcReBO-ltdZH-30" target="jRx22ifhWcReBO-ltdZH-14">
          <mxGeometry x="-0.0024" relative="1" as="geometry">
            <mxPoint x="992" y="870" as="targetPoint" />
            <Array as="points">
              <mxPoint x="1105" y="870" />
              <mxPoint x="1135" y="870" />
            </Array>
            <mxPoint x="1283" y="870" as="sourcePoint" />
            <mxPoint as="offset" />
          </mxGeometry>
        </mxCell>
        <mxCell id="jRx22ifhWcReBO-ltdZH-38" value="Alt" style="shape=umlFrame;whiteSpace=wrap;html=1;pointerEvents=0;" vertex="1" parent="1">
          <mxGeometry x="795.5" y="657" width="549.5" height="254" as="geometry" />
        </mxCell>
        <mxCell id="jRx22ifhWcReBO-ltdZH-39" value="处理结果并且返回" style="html=1;verticalAlign=bottom;endArrow=open;dashed=1;endSize=6;labelBackgroundColor=none;fontFamily=Verdana;fontSize=12;edgeStyle=elbowEdgeStyle;elbow=vertical;jumpSize=6;" edge="1" parent="1" target="jRx22ifhWcReBO-ltdZH-2">
          <mxGeometry x="-0.0024" relative="1" as="geometry">
            <mxPoint x="447" y="957" as="targetPoint" />
            <Array as="points">
              <mxPoint x="683" y="957" />
              <mxPoint x="713" y="957" />
            </Array>
            <mxPoint x="868" y="957" as="sourcePoint" />
            <mxPoint as="offset" />
          </mxGeometry>
        </mxCell>
        <mxCell id="jRx22ifhWcReBO-ltdZH-40" value="" style="html=1;points=[];perimeter=orthogonalPerimeter;rounded=0;shadow=0;comic=0;labelBackgroundColor=none;strokeWidth=1;fontFamily=Verdana;fontSize=12;align=center;" vertex="1" parent="1">
          <mxGeometry x="1005" y="461" width="10" height="34" as="geometry" />
        </mxCell>
        <mxCell id="jRx22ifhWcReBO-ltdZH-41" value="" style="html=1;points=[];perimeter=orthogonalPerimeter;rounded=0;shadow=0;comic=0;labelBackgroundColor=none;strokeWidth=1;fontFamily=Verdana;fontSize=12;align=center;" vertex="1" parent="1">
          <mxGeometry x="1005" y="521" width="10" height="34" as="geometry" />
        </mxCell>
        <mxCell id="jRx22ifhWcReBO-ltdZH-42" value="" style="html=1;points=[];perimeter=orthogonalPerimeter;rounded=0;shadow=0;comic=0;labelBackgroundColor=none;strokeWidth=1;fontFamily=Verdana;fontSize=12;align=center;" vertex="1" parent="1">
          <mxGeometry x="1008" y="578" width="10" height="34" as="geometry" />
        </mxCell>
        <mxCell id="jRx22ifhWcReBO-ltdZH-43" value="" style="html=1;points=[];perimeter=orthogonalPerimeter;rounded=0;shadow=0;comic=0;labelBackgroundColor=none;strokeWidth=1;fontFamily=Verdana;fontSize=12;align=center;" vertex="1" parent="1">
          <mxGeometry x="1155" y="696" width="10" height="34" as="geometry" />
        </mxCell>
        <mxCell id="jRx22ifhWcReBO-ltdZH-44" value="【缓存命中】查找缓存数据" style="html=1;verticalAlign=bottom;endArrow=block;labelBackgroundColor=none;fontFamily=Verdana;fontSize=12;edgeStyle=elbowEdgeStyle;elbow=horizontal;" edge="1" parent="1">
          <mxGeometry relative="1" as="geometry">
            <mxPoint x="457" y="204" as="sourcePoint" />
            <mxPoint x="730" y="204" as="targetPoint" />
          </mxGeometry>
        </mxCell>
        <mxCell id="jRx22ifhWcReBO-ltdZH-45" value="【缓存不命中】查询底层用户数据" style="html=1;verticalAlign=bottom;endArrow=block;labelBackgroundColor=none;fontFamily=Verdana;fontSize=12;edgeStyle=elbowEdgeStyle;elbow=vertical;" edge="1" parent="1" target="jRx22ifhWcReBO-ltdZH-30">
          <mxGeometry relative="1" as="geometry">
            <mxPoint x="459" y="244" as="sourcePoint" />
            <mxPoint x="732" y="232" as="targetPoint" />
          </mxGeometry>
        </mxCell>
        <mxCell id="jRx22ifhWcReBO-ltdZH-46" value="返回用户数据" style="html=1;verticalAlign=bottom;endArrow=open;dashed=1;endSize=6;labelBackgroundColor=none;fontFamily=Verdana;fontSize=12;edgeStyle=elbowEdgeStyle;elbow=vertical;jumpSize=6;" edge="1" parent="1">
          <mxGeometry x="0.0028" y="-5" relative="1" as="geometry">
            <mxPoint x="461" y="271" as="targetPoint" />
            <Array as="points">
              <mxPoint x="658" y="271" />
              <mxPoint x="688" y="271" />
            </Array>
            <mxPoint x="1279" y="271" as="sourcePoint" />
            <mxPoint as="offset" />
          </mxGeometry>
        </mxCell>
        <mxCell id="jRx22ifhWcReBO-ltdZH-47" value="返回用户数据" style="html=1;verticalAlign=bottom;endArrow=open;dashed=1;endSize=6;labelBackgroundColor=none;fontFamily=Verdana;fontSize=12;edgeStyle=elbowEdgeStyle;elbow=vertical;jumpSize=6;" edge="1" parent="1" source="jRx22ifhWcReBO-ltdZH-11">
          <mxGeometry x="0.013" relative="1" as="geometry">
            <mxPoint x="460" y="224" as="targetPoint" />
            <Array as="points">
              <mxPoint x="540" y="224" />
              <mxPoint x="570" y="224" />
            </Array>
            <mxPoint x="599" y="224" as="sourcePoint" />
            <mxPoint as="offset" />
          </mxGeometry>
        </mxCell>
        <mxCell id="jRx22ifhWcReBO-ltdZH-48" value="Alt" style="shape=umlFrame;whiteSpace=wrap;html=1;pointerEvents=0;" vertex="1" parent="1">
          <mxGeometry x="439" y="159" width="904" height="150" as="geometry" />
        </mxCell>
        <mxCell id="jRx22ifhWcReBO-ltdZH-49" value="【如果需要查询】ES查询" style="html=1;verticalAlign=bottom;endArrow=block;labelBackgroundColor=none;fontFamily=Verdana;fontSize=12;edgeStyle=elbowEdgeStyle;elbow=vertical;" edge="1" parent="1">
          <mxGeometry relative="1" as="geometry">
            <mxPoint x="1018" y="584" as="sourcePoint" />
            <mxPoint x="1291" y="584.6700000000001" as="targetPoint" />
          </mxGeometry>
        </mxCell>
        <mxCell id="jRx22ifhWcReBO-ltdZH-50" value="返回信息" style="html=1;verticalAlign=bottom;endArrow=open;dashed=1;endSize=6;labelBackgroundColor=none;fontFamily=Verdana;fontSize=12;edgeStyle=elbowEdgeStyle;elbow=vertical;jumpSize=6;" edge="1" parent="1">
          <mxGeometry x="-0.0024" relative="1" as="geometry">
            <mxPoint x="1014.5" y="605" as="targetPoint" />
            <Array as="points">
              <mxPoint x="1127.5" y="605" />
              <mxPoint x="1157.5" y="605" />
            </Array>
            <mxPoint x="1288" y="605" as="sourcePoint" />
            <mxPoint as="offset" />
          </mxGeometry>
        </mxCell>
      </root>
    </mxGraphModel>
  </diagram>
</mxfile>
